<?xml version="1.0" encoding="UTF-8" standalone="no"?>
<!-- Created with Inkscape (http://www.inkscape.org/) -->

<svg
   width="19.502281mm"
   height="19.502281mm"
   viewBox="0 0 19.502281 19.502281"
   version="1.1"
   id="svg1"
   inkscape:version="1.3 (0e150ed6c4, 2023-07-21)"
   sodipodi:docname="favicon.svg"
   xmlns:inkscape="http://www.inkscape.org/namespaces/inkscape"
   xmlns:sodipodi="http://sodipodi.sourceforge.net/DTD/sodipodi-0.dtd"
   xmlns="http://www.w3.org/2000/svg"
   xmlns:svg="http://www.w3.org/2000/svg">
  <sodipodi:namedview
     id="namedview1"
     pagecolor="#ffffff"
     bordercolor="#000000"
     borderopacity="0.25"
     inkscape:showpageshadow="2"
     inkscape:pageopacity="0.0"
     inkscape:pagecheckerboard="0"
     inkscape:deskcolor="#d1d1d1"
     inkscape:document-units="mm"
     inkscape:zoom="1.1893044"
     inkscape:cx="145.88359"
     inkscape:cy="81.980694"
     inkscape:window-width="1920"
     inkscape:window-height="1057"
     inkscape:window-x="1358"
     inkscape:window-y="-8"
     inkscape:window-maximized="1"
     inkscape:current-layer="layer1" />
  <defs
     id="defs1" />
  <g
     inkscape:label="Capa 1"
     inkscape:groupmode="layer"
     id="layer1"
     transform="translate(-62.460545,-249.5158)">
    <circle
       style="font-variation-settings:'wght' 300;fill:#f2f2f2;fill-opacity:1;stroke-width:1.85208;stroke-linecap:round;stroke-dashoffset:0.200315;paint-order:markers fill stroke"
       id="path2"
       cx="72.211685"
       cy="259.26694"
       r="9.7511406" />
    <path
       id="path1"
       style="fill:#c83737;fill-opacity:1;stroke:none;stroke-width:0.396875;stroke-dasharray:none;stroke-dashoffset:0.200315;paint-order:markers fill stroke"
       d="m 70.496496,252.65234 c -1.632856,0 -2.947191,1.31462 -2.947191,2.94747 v 0.61925 c 0,0.70866 0.248681,1.35639 0.662492,1.8635 a 4.971396,4.971396 0 0 0 -0.893609,2.82766 4.971396,4.971396 0 0 0 0.290617,1.62908 c 0.112214,-0.37942 0.395329,-1.1773 0.860549,-1.46574 0,0 0.06187,1.34985 0.804908,1.13932 0.743022,-0.21053 2.427133,-1.6099 2.154683,-4.85451 0,0 1.944406,0.52001 2.997047,3.60363 0,0 0.52022,-0.74294 0.383998,-1.32499 0,0 0.507608,0.19824 0.718138,0.66883 l 0.0071,0.0127 a 3.5136349,6.4842024 55.280506 0 0 1.24758,-1.5021 4.971396,4.971396 0 0 0 -0.444324,-0.75258 c 0.404787,-0.50434 0.647338,-1.14478 0.647338,-1.84478 v -0.61924 c 0,-1.63286 -1.314611,-2.94747 -2.947469,-2.94747 z m -0.07713,1.46025 h 3.696461 c 0.686048,0 1.238486,0.55213 1.238486,1.2382 v 0.27133 c 0,0.4227 -0.182811,0.80017 -0.472699,1.06136 a 4.971396,4.971396 0 0 0 -0.841818,-0.4074 4.9494053,4.9714417 0 0 0 -0.221473,-0.0827 4.971396,4.971396 0 0 0 -0.319263,-0.0914 4.9494053,4.9714417 0 0 0 -0.334967,-0.0735 4.971396,4.971396 0 0 0 -0.261411,-0.0444 4.9494053,4.9714417 0 0 0 -0.544043,-0.0403 4.971396,4.971396 0 0 0 -0.06887,-0.005 4.971396,4.971396 0 0 0 -0.0096,0.001 4.9494053,4.9714417 0 0 0 -0.01238,-0.001 4.9494053,4.9714417 0 0 0 -0.640452,0.0474 4.971396,4.971396 0 0 0 -0.14159,0.0243 4.9494053,4.9714417 0 0 0 -0.51016,0.11104 4.971396,4.971396 0 0 0 -0.158665,0.0458 4.9494053,4.9714417 0 0 0 -0.518152,0.19309 4.971396,4.971396 0 0 0 -0.09696,0.0403 4.9494053,4.9714417 0 0 0 -0.54101,0.28979 c -0.294082,-0.2614 -0.47983,-0.64176 -0.47983,-1.06797 v -0.27137 c 0,-0.68607 0.552438,-1.23822 1.238485,-1.23822 z m 6.985501,0.89387 c 0,0 2.186947,3.76755 -4.477398,7.72182 a 3.5136349,6.4842024 55.280506 0 1 -6.142851,0.2975 3.5136349,6.4842024 55.280506 0 1 -0.04297,-3.11826 3.941655,7.2740873 55.280506 0 0 -0.369119,4.25675 3.941655,7.2740873 55.280506 0 0 7.510533,-0.69361 l 0.0026,-0.001 c 3.083184,-1.67954 6.574248,-6.11909 3.519053,-8.46308 z m -0.187866,6.51914 a 3.941655,7.2740873 55.280506 0 1 -1.80925,1.6302 3.941655,7.2740873 55.280506 0 1 -5.285056,2.22024 4.971396,4.971396 0 0 0 2.167074,0.50547 4.971396,4.971396 0 0 0 4.927232,-4.35591 z"
       inkscape:export-filename="profit.svg"
       inkscape:export-xdpi="96"
       inkscape:export-ydpi="96" />
  </g>
</svg>
