<?xml version="1.0" encoding="UTF-8" standalone="no"?>
<!-- Created with Inkscape (http://www.inkscape.org/) -->

<svg
   width="36.214104mm"
   height="11.90625mm"
   viewBox="0 0 36.214103 11.90625"
   version="1.1"
   id="svg1"
   inkscape:version="1.3 (0e150ed6c4, 2023-07-21)"
   sodipodi:docname="logo.svg"
   xmlns:inkscape="http://www.inkscape.org/namespaces/inkscape"
   xmlns:sodipodi="http://sodipodi.sourceforge.net/DTD/sodipodi-0.dtd"
   xmlns="http://www.w3.org/2000/svg"
   xmlns:svg="http://www.w3.org/2000/svg">
  <sodipodi:namedview
     id="namedview1"
     pagecolor="#ffffff"
     bordercolor="#000000"
     borderopacity="0.25"
     inkscape:showpageshadow="2"
     inkscape:pageopacity="0.0"
     inkscape:pagecheckerboard="0"
     inkscape:deskcolor="#d1d1d1"
     inkscape:document-units="mm"
     inkscape:zoom="3.3638608"
     inkscape:cx="40.429735"
     inkscape:cy="10.850627"
     inkscape:window-width="1366"
     inkscape:window-height="697"
     inkscape:window-x="-8"
     inkscape:window-y="530"
     inkscape:window-maximized="1"
     inkscape:current-layer="layer1" />
  <defs
     id="defs1" />
  <g
     inkscape:label="Capa 1"
     inkscape:groupmode="layer"
     id="layer1"
     transform="translate(-65.838625,-252.65234)">
    <path
       id="path1"
       style="fill:#c83737;fill-opacity:1;stroke:none;stroke-width:0.396875;stroke-dasharray:none;stroke-dashoffset:0.200315;paint-order:markers fill stroke"
       d="m 70.030708,252.65234 c -1.46957,0 -2.652472,1.18316 -2.652472,2.65272 v 0.55733 c 0,0.63779 0.223813,1.22075 0.596243,1.67715 a 4.4742553,4.4742553 0 0 0 -0.804248,2.54489 4.4742553,4.4742553 0 0 0 0.261555,1.46617 c 0.100993,-0.34148 0.355796,-1.05957 0.774494,-1.31917 0,0 0.05568,1.21487 0.724417,1.02539 0.66872,-0.18947 2.184419,-1.44891 1.939214,-4.36906 0,0 1.749965,0.46801 2.697342,3.24327 0,0 0.468198,-0.66864 0.345598,-1.19249 0,0 0.456847,0.17842 0.646324,0.60195 l 0.0064,0.0114 A 3.1622706,5.8357807 55.280506 0 0 75.688397,258.2 4.4742553,4.4742553 0 0 0 75.288505,257.52268 c 0.364309,-0.45391 0.582604,-1.03031 0.582604,-1.66031 v -0.55731 c 0,-1.46958 -1.183149,-2.65272 -2.652721,-2.65272 z m -0.06942,1.31422 h 3.326814 c 0.617443,0 1.114637,0.49692 1.114637,1.11438 v 0.2442 c 0,0.38043 -0.16453,0.72015 -0.425429,0.95522 a 4.4742553,4.4742553 0 0 0 -0.757636,-0.36666 4.4544636,4.4742964 0 0 0 -0.199326,-0.0744 4.4742553,4.4742553 0 0 0 -0.287337,-0.0823 4.4544636,4.4742964 0 0 0 -0.30147,-0.0662 4.4742553,4.4742553 0 0 0 -0.23527,-0.04 4.4544636,4.4742964 0 0 0 -0.489638,-0.0363 4.4742553,4.4742553 0 0 0 -0.06198,-0.005 4.4742553,4.4742553 0 0 0 -0.0086,9e-4 4.4544636,4.4742964 0 0 0 -0.01114,-9e-4 4.4544636,4.4742964 0 0 0 -0.576407,0.0427 4.4742553,4.4742553 0 0 0 -0.127431,0.0219 4.4544636,4.4742964 0 0 0 -0.459144,0.0999 4.4742553,4.4742553 0 0 0 -0.142798,0.0412 4.4544636,4.4742964 0 0 0 -0.466337,0.17378 4.4742553,4.4742553 0 0 0 -0.08726,0.0363 4.4544636,4.4742964 0 0 0 -0.486909,0.26081 c -0.264673,-0.23526 -0.431847,-0.57758 -0.431847,-0.96117 v -0.24423 c 0,-0.61747 0.497195,-1.1144 1.114637,-1.1144 z m 6.286949,0.80449 c 0,0 1.968252,3.39079 -4.029657,6.94963 a 3.1622706,5.8357807 55.280506 0 1 -5.528565,0.26775 3.1622706,5.8357807 55.280506 0 1 -0.03867,-2.80643 3.5474886,6.5466769 55.280506 0 0 -0.332207,3.83107 3.5474886,6.5466769 55.280506 0 0 6.759478,-0.62425 l 0.0023,-9e-4 c 2.774865,-1.51158 5.916822,-5.50718 3.167147,-7.61677 z m -0.169079,5.86722 a 3.5474886,6.5466769 55.280506 0 1 -1.628325,1.46718 3.5474886,6.5466769 55.280506 0 1 -4.756549,1.99822 4.4742553,4.4742553 0 0 0 1.950366,0.45492 4.4742553,4.4742553 0 0 0 4.434508,-3.92032 z"
       inkscape:export-filename="profit.svg"
       inkscape:export-xdpi="96"
       inkscape:export-ydpi="96" />
    <path
       style="font-size:11.7069px;line-height:1.3;font-family:Raleway;-inkscape-font-specification:'Raleway, @wght=700';font-variation-settings:'wght' 700;text-align:center;letter-spacing:1.46335px;text-anchor:middle;stroke-width:0.396877;stroke-dashoffset:0.200315;paint-order:markers fill stroke"
       d="m 79.273023,258.74536 v -3.98763 h 1.690534 q 0.2752,0 0.505475,0.11231 0.23027,0.11232 0.398763,0.30328 0.174106,0.19096 0.269586,0.42686 0.09548,0.23588 0.09548,0.483 0,0.33698 -0.157257,0.64026 -0.157257,0.30329 -0.432461,0.49426 -0.275204,0.19095 -0.651501,0.19095 h -0.943554 v 1.3367 z m 0.775061,-2.01628 h 0.89862 q 0.140413,0 0.252737,-0.0787 0.112326,-0.0787 0.179729,-0.22467 0.0674,-0.15163 0.0674,-0.34259 0,-0.2078 -0.07863,-0.35384 -0.07302,-0.14601 -0.196573,-0.21903 -0.117942,-0.0731 -0.258355,-0.0731 H 80.04809 Z m 3.425988,2.01628 v -3.98763 h 1.763542 q 0.275203,0 0.505474,0.11231 0.235888,0.11232 0.404382,0.30328 0.174111,0.19096 0.263973,0.42686 0.09548,0.23588 0.09548,0.483 0,0.25273 -0.08987,0.48863 -0.08425,0.23027 -0.247119,0.40438 -0.162874,0.1741 -0.381914,0.26959 l 0.909855,1.49957 h -0.85369 l -0.819995,-1.3367 h -0.77506 v 1.3367 z m 0.77506,-2.01628 h 0.971633 q 0.146026,0 0.258354,-0.0843 0.112326,-0.0898 0.179725,-0.23588 0.06739,-0.14604 0.06739,-0.32576 0,-0.19095 -0.07862,-0.33137 -0.07863,-0.14602 -0.202189,-0.23026 -0.117948,-0.0843 -0.258356,-0.0843 h -0.937935 z m 5.340852,2.04436 q -0.438079,0 -0.797527,-0.16848 -0.353831,-0.1685 -0.612185,-0.45494 -0.252737,-0.29205 -0.393146,-0.6515 -0.140412,-0.36506 -0.140412,-0.74697 0,-0.39877 0.146025,-0.75821 0.151644,-0.36507 0.41,-0.6459 0.263967,-0.28643 0.617802,-0.44931 0.359449,-0.16848 0.786292,-0.16848 0.432462,0 0.786296,0.17409 0.359448,0.17413 0.612186,0.46617 0.252737,0.29205 0.393145,0.65151 0.140413,0.35945 0.140413,0.74136 0,0.39315 -0.146026,0.75822 -0.146026,0.35944 -0.409999,0.64587 -0.258356,0.28082 -0.617803,0.4437 -0.35383,0.16287 -0.775061,0.16287 z m -1.156975,-2.02189 q 0,0.25834 0.07863,0.49985 0.07863,0.24151 0.224653,0.43246 0.151644,0.18535 0.365066,0.29767 0.219039,0.10669 0.494243,0.10669 0.280817,0 0.499857,-0.11232 0.219039,-0.11794 0.365066,-0.3089 0.146026,-0.19657 0.21904,-0.43246 0.07863,-0.2415 0.07863,-0.483 0,-0.25836 -0.08425,-0.49425 -0.07863,-0.24151 -0.230271,-0.42684 -0.146026,-0.19097 -0.365065,-0.29767 -0.213422,-0.11232 -0.483009,-0.11232 -0.286434,0 -0.505474,0.11794 -0.213427,0.11232 -0.359448,0.30329 -0.146027,0.19096 -0.224658,0.42685 -0.07302,0.23588 -0.07302,0.48301 z m 4.403243,1.99381 v -3.98763 h 2.679016 v 0.67958 h -1.903955 v 1.02781 h 1.583824 v 0.62902 h -1.583824 v 1.65122 z m 3.925847,0 v -3.98763 h 0.775062 v 3.98763 z m 5.290631,-3.30805 h -1.27492 v 3.30805 h -0.76945 v -3.30805 h -1.274919 v -0.67958 h 3.319289 z"
       id="text1"
       aria-label="PROFIT" />
    <path
       style="font-size:7.08613px;line-height:1.3;font-family:Raleway;-inkscape-font-specification:'Raleway, @wght=700';font-variation-settings:'wght' 700;text-align:center;letter-spacing:0.885762px;text-anchor:middle;stroke-width:0.396877;stroke-dashoffset:0.200315;paint-order:markers fill stroke"
       d="m 80.887824,260.67272 q -0.02379,-0.0238 -0.08839,-0.0646 -0.06119,-0.0408 -0.152978,-0.0782 -0.08839,-0.0374 -0.193776,-0.0646 -0.105382,-0.0306 -0.214174,-0.0306 -0.190375,0 -0.288964,0.0714 -0.09519,0.0714 -0.09519,0.20059 0,0.0986 0.06119,0.15637 0.06119,0.0579 0.183578,0.0986 0.122383,0.0408 0.305959,0.0884 0.237971,0.0579 0.411348,0.14277 0.176778,0.0816 0.268569,0.21759 0.09519,0.13257 0.09519,0.35354 0,0.19378 -0.0714,0.33317 -0.0714,0.13598 -0.197172,0.22096 -0.125785,0.085 -0.285568,0.12579 -0.15978,0.0374 -0.339955,0.0374 -0.18018,0 -0.360354,-0.0374 -0.18018,-0.0374 -0.346759,-0.10534 -0.16658,-0.0714 -0.305961,-0.16997 l 0.207377,-0.40456 q 0.03061,0.0306 0.108781,0.0815 0.07819,0.0476 0.190375,0.0986 0.11219,0.0476 0.244774,0.0816 0.132582,0.034 0.268563,0.034 0.190375,0 0.288963,-0.0646 0.09858,-0.0646 0.09858,-0.18357 0,-0.10883 -0.07819,-0.16998 -0.07819,-0.0612 -0.21757,-0.10534 -0.139388,-0.0476 -0.329763,-0.10196 -0.22777,-0.0646 -0.380753,-0.14279 -0.152977,-0.0816 -0.22777,-0.20397 -0.07479,-0.12238 -0.07479,-0.30596 0,-0.24817 0.115586,-0.41475 0.118983,-0.16997 0.319557,-0.25497 0.200578,-0.0884 0.445346,-0.0884 0.169976,0 0.319557,0.0374 0.152984,0.0374 0.285566,0.0986 0.132585,0.0612 0.237972,0.13257 z m 2.87604,-0.22097 h -0.771702 v 2.00234 H 82.52642 v -2.00234 h -0.771703 v -0.41135 h 2.009147 z m 1.698115,2.01935 q -0.265167,0 -0.48274,-0.10196 -0.214174,-0.10196 -0.370554,-0.27536 -0.152977,-0.17678 -0.23797,-0.39436 -0.08499,-0.22096 -0.08499,-0.45214 0,-0.24137 0.08839,-0.45894 0.09179,-0.22097 0.248171,-0.39095 0.159775,-0.17338 0.373951,-0.27197 0.21757,-0.10196 0.47594,-0.10196 0.261767,0 0.475942,0.10534 0.217571,0.10533 0.370548,0.28217 0.152984,0.17677 0.23797,0.39435 0.08499,0.21757 0.08499,0.44874 0,0.23797 -0.08839,0.45894 -0.08839,0.21757 -0.248169,0.39095 -0.15638,0.16998 -0.373952,0.26857 -0.214174,0.0986 -0.469142,0.0986 z m -0.700311,-1.22384 q 0,0.15637 0.04759,0.30256 0.04759,0.14618 0.135985,0.26175 0.09179,0.11221 0.220974,0.18019 0.132584,0.0646 0.299162,0.0646 0.169975,0 0.30256,-0.0679 0.132583,-0.0714 0.220973,-0.18699 0.08839,-0.11897 0.132583,-0.26177 0.04759,-0.14617 0.04759,-0.29235 0,-0.15639 -0.05099,-0.29916 -0.04759,-0.14618 -0.139382,-0.25837 -0.08839,-0.11559 -0.220973,-0.18018 -0.129182,-0.0679 -0.29236,-0.0679 -0.173382,0 -0.305966,0.0714 -0.129182,0.0679 -0.217571,0.18357 -0.08839,0.11559 -0.13598,0.25836 -0.04418,0.1428 -0.04418,0.29238 z m 2.665262,1.20683 v -2.41369 h 1.067468 q 0.166578,0 0.30596,0.0679 0.142785,0.068 0.244769,0.18358 0.105382,0.11559 0.15978,0.25837 0.05779,0.14278 0.05779,0.29237 0,0.15297 -0.05439,0.29575 -0.051,0.13938 -0.14958,0.24477 -0.09858,0.10534 -0.231173,0.16317 l 0.550729,0.9077 h -0.516734 l -0.49634,-0.80909 H 87.89607 v 0.80909 z m 0.469142,-1.22044 h 0.588126 q 0.08839,0 0.15638,-0.051 0.06799,-0.0544 0.108792,-0.14278 0.04079,-0.0884 0.04079,-0.19717 0,-0.11559 -0.04759,-0.20057 -0.04759,-0.0884 -0.122389,-0.13939 -0.07139,-0.0509 -0.15638,-0.0509 h -0.56773 z m 3.892512,0.8091 v 0.41134 h -1.675989 v -2.41369 h 1.645394 v 0.41135 h -1.176256 v 0.58133 h 1.016475 v 0.38076 h -1.016475 v 0.62891 z"
       id="text4"
       aria-label="STORE" />
  </g>
</svg>
